<mxfile host="app.diagrams.net" modified="2023-08-28T15:04:48.351Z" agent="Mozilla/5.0 (Windows NT 10.0; Win64; x64) AppleWebKit/537.36 (KHTML, like Gecko) Chrome/116.0.0.0 Safari/537.36" etag="eaJN1aF9GtotZFazhHTS" version="21.6.9" type="device">
  <diagram id="C5RBs43oDa-KdzZeNtuy" name="Page-1">
    <mxGraphModel dx="874" dy="478" grid="1" gridSize="10" guides="1" tooltips="1" connect="1" arrows="1" fold="1" page="1" pageScale="1" pageWidth="827" pageHeight="1169" math="0" shadow="0">
      <root>
        <mxCell id="WIyWlLk6GJQsqaUBKTNV-0" />
        <mxCell id="WIyWlLk6GJQsqaUBKTNV-1" parent="WIyWlLk6GJQsqaUBKTNV-0" />
        <mxCell id="j7bkpxcYDpnI14ALI_Ux-8" style="edgeStyle=orthogonalEdgeStyle;rounded=0;orthogonalLoop=1;jettySize=auto;html=1;entryX=0.5;entryY=0;entryDx=0;entryDy=0;" edge="1" parent="WIyWlLk6GJQsqaUBKTNV-1" source="j7bkpxcYDpnI14ALI_Ux-0" target="j7bkpxcYDpnI14ALI_Ux-2">
          <mxGeometry relative="1" as="geometry" />
        </mxCell>
        <mxCell id="j7bkpxcYDpnI14ALI_Ux-0" value="" style="ellipse;whiteSpace=wrap;html=1;aspect=fixed;fillColor=#000000;" vertex="1" parent="WIyWlLk6GJQsqaUBKTNV-1">
          <mxGeometry x="384" y="50" width="60" height="60" as="geometry" />
        </mxCell>
        <mxCell id="j7bkpxcYDpnI14ALI_Ux-1" value="" style="ellipse;whiteSpace=wrap;html=1;aspect=fixed;fillColor=#000000;" vertex="1" parent="WIyWlLk6GJQsqaUBKTNV-1">
          <mxGeometry x="384" y="585" width="60" height="60" as="geometry" />
        </mxCell>
        <mxCell id="j7bkpxcYDpnI14ALI_Ux-9" style="edgeStyle=orthogonalEdgeStyle;rounded=0;orthogonalLoop=1;jettySize=auto;html=1;entryX=0.5;entryY=0;entryDx=0;entryDy=0;" edge="1" parent="WIyWlLk6GJQsqaUBKTNV-1" source="j7bkpxcYDpnI14ALI_Ux-2" target="j7bkpxcYDpnI14ALI_Ux-3">
          <mxGeometry relative="1" as="geometry" />
        </mxCell>
        <mxCell id="j7bkpxcYDpnI14ALI_Ux-2" value="&quot;Ingrese valor y cantidad de autos&quot;" style="shape=document;whiteSpace=wrap;html=1;boundedLbl=1;" vertex="1" parent="WIyWlLk6GJQsqaUBKTNV-1">
          <mxGeometry x="354" y="130" width="120" height="80" as="geometry" />
        </mxCell>
        <mxCell id="j7bkpxcYDpnI14ALI_Ux-10" style="edgeStyle=orthogonalEdgeStyle;rounded=0;orthogonalLoop=1;jettySize=auto;html=1;" edge="1" parent="WIyWlLk6GJQsqaUBKTNV-1" source="j7bkpxcYDpnI14ALI_Ux-3">
          <mxGeometry relative="1" as="geometry">
            <mxPoint x="414" y="310" as="targetPoint" />
          </mxGeometry>
        </mxCell>
        <mxCell id="j7bkpxcYDpnI14ALI_Ux-3" value="valorVehiculo, cantidadVendida" style="shape=parallelogram;perimeter=parallelogramPerimeter;whiteSpace=wrap;html=1;fixedSize=1;" vertex="1" parent="WIyWlLk6GJQsqaUBKTNV-1">
          <mxGeometry x="341" y="230" width="146" height="60" as="geometry" />
        </mxCell>
        <mxCell id="j7bkpxcYDpnI14ALI_Ux-12" style="edgeStyle=orthogonalEdgeStyle;rounded=0;orthogonalLoop=1;jettySize=auto;html=1;entryX=0.5;entryY=0;entryDx=0;entryDy=0;" edge="1" parent="WIyWlLk6GJQsqaUBKTNV-1" source="j7bkpxcYDpnI14ALI_Ux-4" target="j7bkpxcYDpnI14ALI_Ux-5">
          <mxGeometry relative="1" as="geometry" />
        </mxCell>
        <mxCell id="j7bkpxcYDpnI14ALI_Ux-4" value="sueldoTotal &amp;lt;- sueldoBase + plusVehiculo + plusConstante" style="rounded=0;whiteSpace=wrap;html=1;" vertex="1" parent="WIyWlLk6GJQsqaUBKTNV-1">
          <mxGeometry x="331" y="400" width="166" height="60" as="geometry" />
        </mxCell>
        <mxCell id="j7bkpxcYDpnI14ALI_Ux-13" style="edgeStyle=orthogonalEdgeStyle;rounded=0;orthogonalLoop=1;jettySize=auto;html=1;entryX=0.5;entryY=0;entryDx=0;entryDy=0;" edge="1" parent="WIyWlLk6GJQsqaUBKTNV-1" source="j7bkpxcYDpnI14ALI_Ux-5" target="j7bkpxcYDpnI14ALI_Ux-1">
          <mxGeometry relative="1" as="geometry" />
        </mxCell>
        <mxCell id="j7bkpxcYDpnI14ALI_Ux-5" value="&quot;El sueldo del vendedor es:&quot;, sueldoTotal" style="shape=document;whiteSpace=wrap;html=1;boundedLbl=1;" vertex="1" parent="WIyWlLk6GJQsqaUBKTNV-1">
          <mxGeometry x="336" y="490" width="156" height="65" as="geometry" />
        </mxCell>
        <mxCell id="j7bkpxcYDpnI14ALI_Ux-11" style="edgeStyle=orthogonalEdgeStyle;rounded=0;orthogonalLoop=1;jettySize=auto;html=1;entryX=0.5;entryY=0;entryDx=0;entryDy=0;" edge="1" parent="WIyWlLk6GJQsqaUBKTNV-1" source="j7bkpxcYDpnI14ALI_Ux-6" target="j7bkpxcYDpnI14ALI_Ux-4">
          <mxGeometry relative="1" as="geometry" />
        </mxCell>
        <mxCell id="j7bkpxcYDpnI14ALI_Ux-6" value="sueldoBase &amp;lt;- 500.0 &lt;br&gt;plusVehiculo &amp;lt;- valorVehiculo * 0.1 plusConstante &amp;lt;- cantidadVendida * 50.0" style="rounded=0;whiteSpace=wrap;html=1;" vertex="1" parent="WIyWlLk6GJQsqaUBKTNV-1">
          <mxGeometry x="296" y="310" width="236" height="70" as="geometry" />
        </mxCell>
      </root>
    </mxGraphModel>
  </diagram>
</mxfile>
